<?xml version="1.0" encoding="iso-8859-1"?>
<!-- Generator: Adobe Illustrator 19.0.0, SVG Export Plug-In . SVG Version: 6.00 Build 0)  -->
<svg version="1.1" id="Capa_1" xmlns="http://www.w3.org/2000/svg" xmlns:xlink="http://www.w3.org/1999/xlink" x="0px" y="0px"
	 viewBox="0 0 512 512" style="enable-background:new 0 0 512 512;" xml:space="preserve">
<g transform="matrix(1.25 0 0 -1.25 0 45)">
	<g>
		<path style="fill:#F4900C;" d="M204.8-9.511c82.568,0,147.911-45.511,167.242-22.756c2.241,3.675,3.425,7.475,3.425,11.378
			C375.467,1.867,299.053,36,204.8,36S34.133,1.867,34.133-20.889c0-3.903,1.183-7.703,3.425-11.378
			C56.889-55.022,122.232-9.511,204.8-9.511"/>
		<path style="fill:#FFCC4D;" d="M204.8,1.867c-70.69,0-120.787-20.594-139.64-29.787c-5.427-2.651-6.144-9.557-4.722-14.541
			c1.422-4.972,121.606-308.383,121.606-308.383S192.239-373.6,204.8-373.6c12.572,0,22.756,22.756,22.756,22.756L349.343-41.13
			c0,0,2.424,9.569-6.474,13.972C323.038-17.35,273.601,1.867,204.8,1.867"/>
	</g>
	<g>
		<path style="fill:#BE1931;" d="M159.289-271.2c-2.89,0-5.713-0.281-8.453-0.796c17.855-45.133,31.209-78.848,31.209-78.848
			s0.8-1.595,2.177-3.93c12.39,8.134,20.579,22.145,20.579,38.064C204.8-291.589,184.422-271.2,159.289-271.2z"/>
		<path style="fill:#BE1931;" d="M147.911-237.067c25.122,0,45.511,20.389,45.511,45.511c0,25.133-20.389,45.511-45.511,45.511
			c-16.199,0-30.412-8.471-38.477-21.219c8.92-22.588,18.191-46.046,27.008-68.343C140.106-236.558,143.949-237.067,147.911-237.067
			z"/>
		<path style="fill:#BE1931;" d="M136.533-55.022c0-25.133,20.378-45.511,45.511-45.511c25.122,0,45.511,20.378,45.511,45.511
			S207.167-9.511,182.044-9.511C156.911-9.511,136.533-29.889,136.533-55.022z"/>
		<path style="fill:#BE1931;" d="M284.444-66.4c-25.122,0-45.511-20.378-45.511-45.511s20.389-45.511,45.511-45.511
			c7.672,0,14.899,1.909,21.243,5.266l21.724,55.245C321.208-79.15,304.312-66.4,284.444-66.4z"/>
		<path style="fill:#BE1931;" d="M261.689-202.933c-25.122,0-45.511-20.389-45.511-45.511c0-21.253,14.593-39.114,34.298-44.114
			l33.049,84.043C277.041-204.959,269.601-202.933,261.689-202.933z"/>
		<path style="fill:#BE1931;" d="M97.018-135.807c10.226,8.346,16.76,21.046,16.76,35.274c0,25.133-20.378,45.511-45.511,45.511
			c-0.998,0-1.985-0.044-2.967-0.107C71.569-71.222,83.31-101.059,97.018-135.807z"/>
	</g>
</g>
<g>
</g>
<g>
</g>
<g>
</g>
<g>
</g>
<g>
</g>
<g>
</g>
<g>
</g>
<g>
</g>
<g>
</g>
<g>
</g>
<g>
</g>
<g>
</g>
<g>
</g>
<g>
</g>
<g>
</g>
</svg>
